<svg width="16" height="16" viewBox="0 0 16 16" fill="none" xmlns="http://www.w3.org/2000/svg">
<path d="M5.59377 15.4221C5.59377 15.1076 5.84576 14.8517 6.15936 14.8444L6.17304 14.8443H8.67696C11.0909 14.8443 13.0404 13.0237 13.0792 10.7793L13.0798 10.7111L13.0798 3.86513H11.6746C11.4777 3.86513 11.3182 3.70592 11.3182 3.50957C11.3181 3.44269 11.337 3.37717 11.3727 3.32053L13.3572 0.166569C13.4618 0.000250816 13.6818 -0.0499325 13.8485 0.0544529C13.894 0.0829096 13.9324 0.121234 13.9609 0.166569L15.9454 3.32053C16.0501 3.48685 15.9997 3.70631 15.833 3.81071C15.7762 3.84626 15.7106 3.86511 15.6435 3.86511L14.2383 3.86513V10.7111C14.2383 13.6099 11.7914 15.9527 8.76871 15.9993L8.67698 16H6.17304C5.85312 16 5.59377 15.7413 5.59377 15.4221ZM0.166986 11.8316C0.223763 11.7961 0.289436 11.7772 0.356468 11.7772L1.76162 11.7773L1.76162 5.33125C1.76162 2.43246 4.20859 0.0896807 7.23125 0.0431108L7.323 0.0423946H9.82692C10.1468 0.0423946 10.4062 0.301119 10.4062 0.620248C10.4062 0.934836 10.1542 1.1907 9.8406 1.19795L9.82692 1.1981H7.323C4.90906 1.1981 2.95952 3.01873 2.92076 5.26311L2.92018 5.33125V11.7773H4.32541C4.52225 11.7773 4.68183 11.9364 4.68183 12.1328C4.68182 12.1997 4.66292 12.2652 4.62728 12.3218L2.64278 15.4758C2.53814 15.6421 2.31815 15.6923 2.15143 15.5879C2.10598 15.5594 2.06756 15.5211 2.03904 15.4758L0.0545797 12.3218C-0.0500594 12.1555 0.000265015 11.936 0.166986 11.8316V11.8316Z" fill="white"/>
</svg>
